<svg width="290" height="144" viewBox="0 0 290 144" fill="none" xmlns="http://www.w3.org/2000/svg">
<path d="M264.973 143.2C246.04 143.2 236.573 133.533 236.573 114.2V58.2H217.773V54.8L225.173 47.2H237.173V34L252.373 20.2H259.373V48.4H288.173V58.2H259.573V114.6C259.573 118.2 260.573 121.133 262.573 123.4C264.707 125.667 267.173 126.8 269.973 126.8C272.373 126.8 274.707 126.467 276.973 125.8C279.24 125.133 282.173 123.867 285.773 122L289.573 129.8L264.973 143.2Z" fill="#44443D"/>
<path d="M212.438 126C203.237 133.067 191.104 138.8 176.038 143.2C167.371 143.2 159.438 141.267 152.238 137.4C145.171 133.533 139.504 128 135.238 120.8C130.971 113.467 128.837 104.867 128.837 95C128.837 67.4 144.371 49.8667 175.438 42.4C188.104 42.4 197.371 45.8667 203.238 52.8C209.238 59.7333 212.238 68.9333 212.238 80.4V90H152.438C152.971 101.067 155.904 109.867 161.238 116.4C166.704 122.8 174.171 126 183.638 126C187.638 126 191.838 125.2 196.238 123.6C200.771 122 204.904 120.067 208.638 117.8L212.438 126ZM171.838 53.6C166.371 53.6 161.904 56 158.438 60.8C155.104 65.4667 153.171 72.2 152.637 81L188.238 79.2C188.238 70.8 187.104 64.4667 184.837 60.2C182.571 55.8 178.238 53.6 171.838 53.6Z" fill="#44443D"/>
<path d="M81 138.6L65.4 143.4L14.6 10.4L0 8L1 0L32 0.600006L57.4 0L58.4 8L42.4 10.6L76.4 105.8L77 118L115.2 10.6L98.6 8L99.6 0L122.2 0.600006L143 0L144 8L129.8 10.4L81 138.6Z" fill="#44443D"/>
</svg>
